<svg width="24" height="24" viewBox="0 0 24 24" fill="none" xmlns="http://www.w3.org/2000/svg">
<path d="M20 12V18C20 20.2091 18.2091 22 16 22H8C5.79086 22 4 20.2091 4 18V12" stroke="white" stroke-width="1.5" stroke-linejoin="round"/>
<path d="M16.767 2H7.22951C5.41216 2 3.7779 3.24476 3.10295 5.14305L2.34496 7.27487C2.11552 7.92019 1.95691 8.61074 2.12427 9.27488C2.52061 10.8478 3.80649 12 5.33159 12C7.17254 12 8.66492 10.3211 8.66492 8.25C8.66492 10.3211 10.1573 12 11.9983 12C13.8392 12 15.3316 10.3211 15.3316 8.25C15.3316 10.3211 16.824 12 18.6649 12C20.19 12 21.4759 10.8478 21.8722 9.27488C22.0396 8.61074 21.881 7.92019 21.6515 7.27487L20.8936 5.14305C20.2186 3.24475 18.5844 2 16.767 2Z" stroke="white" stroke-width="1.5" stroke-linejoin="round"/>
<path d="M9 19C9 17.3431 10.3431 16 12 16C13.6569 16 15 17.3431 15 19V22H9V19Z" stroke="white" stroke-width="1.5" stroke-linejoin="round"/>
</svg>
